<?xml version="1.0" encoding="UTF-8"?>
<svg width="24px" height="24px" viewBox="0 0 24 24" version="1.1" xmlns="http://www.w3.org/2000/svg" xmlns:xlink="http://www.w3.org/1999/xlink">
    <title>trekking</title>
    <g id="Symbols" stroke="none" stroke-width="1" fill="none" fill-rule="evenodd">
        <g id="btn_rutas" transform="translate(-56, -18)">
            <g id="trekking" transform="translate(56, 18)">
                <polygon id="Path" points="0 0 24 0 24 24 0 24"></polygon>
                <path d="M11,4 C11,4.55228475 11.4477153,5 12,5 C12.5522847,5 13,4.55228475 13,4 C13,3.44771525 12.5522847,3 12,3 C11.4477153,3 11,3.44771525 11,4" id="Path" stroke="#635036" stroke-width="2" stroke-linecap="round" stroke-linejoin="round"></path>
                <line x1="7" y1="21" x2="9" y2="17" id="Path" stroke="#635036" stroke-width="2" stroke-linecap="round" stroke-linejoin="round"></line>
                <polyline id="Path" stroke="#635036" stroke-width="2" stroke-linecap="round" stroke-linejoin="round" points="13 21 13 17 10 14 11 8 14 12 17 14"></polyline>
                <path d="M10,14 L8.173,12.782 C7.4693465,12.3130665 7.13664144,11.4522772 7.342,10.632 L7.622,9.515 C7.8444395,8.62510228 8.64372309,8.00059757 9.561,8 L11,8 L15,9 L18,7" id="Path" stroke="#635036" stroke-width="2" stroke-linecap="round" stroke-linejoin="round"></path>
                <line x1="17" y1="12" x2="17" y2="21" id="Path" stroke="#635036" stroke-width="2" stroke-linecap="round" stroke-linejoin="round"></line>
                <line x1="16" y1="20" x2="18" y2="20" id="Path" stroke="#635036" stroke-width="2" stroke-linecap="round" stroke-linejoin="round"></line>
            </g>
        </g>
    </g>
</svg>