<?xml version="1.0" encoding="UTF-8"?>
<svg width="111px" height="54px" viewBox="0 0 111 54" version="1.1" xmlns="http://www.w3.org/2000/svg" xmlns:xlink="http://www.w3.org/1999/xlink">
    <title>Galicia_viquinga_logo</title>
    <g id="Page-1" stroke="none" stroke-width="1" fill="none" fill-rule="evenodd">
        <g id="iMac-21.5&quot;" transform="translate(-330, -15)" fill="#D9CFC5">
            <g id="Galicia_viquinga_logo" transform="translate(330, 15)">
                <g id="Group-17" transform="translate(0, 32)">
                    <path d="M5.59510302,10.674531 C4.38216462,7.36587693 3.49693939,4.97263529 2.93742909,3.49381594 C2.62020673,2.69920426 2.31247606,2.14470889 2.01423709,1.83032982 C1.71549855,1.51595074 1.27688244,1.30306413 0.699387878,1.19266014 C0.624453463,1.17434199 0.512551402,1.15107298 0.363681697,1.12334822 C0.214312428,1.09512836 0.115898563,1.04017391 0.069439225,0.956999604 C0.0234794502,0.873825298 0,0.740152306 0,0.554990458 C0,0.332697224 0.0604470952,0.185161848 0.181840848,0.11139416 C0.302735039,0.0376264718 0.49406758,0 0.755338908,0 C2.15411466,0 3.21718424,0.212886616 3.94454763,0.638164764 C4.67191103,1.06344291 5.24990515,1.8209232 5.67902957,2.91110071 L9.73547926,13.7237605 L9.81940581,13.7237605 L13.6800269,2.60662334 C13.791929,2.29224427 13.84788,2.05212797 13.84788,1.88577935 C13.84788,1.6273449 13.740474,1.45604544 13.5261616,1.37287113 C13.3113496,1.28969683 12.9526635,1.24810967 12.4491042,1.24810967 L12.2812511,1.24810967 C12.0949142,1.24810967 11.9640288,1.21592914 11.8895939,1.15107298 C11.8146595,1.08621683 11.7677006,0.924819069 11.7497164,0.665394448 C11.7497164,0.499045836 11.7916796,0.356461311 11.8756062,0.236155619 C11.9595327,0.115849926 12.0759308,0.0559446225 12.2248005,0.0559446225 C13.4372394,0.11139416 14.4533501,0.139118928 15.2746313,0.139118928 C15.6288213,0.139118928 16.3097253,0.120800778 17.3168439,0.083174306 L17.9043297,0.0559446225 C18.0721828,0.0559446225 18.1980726,0.115849926 18.2819991,0.236155619 C18.3654261,0.356461311 18.4073894,0.499045836 18.4073894,0.665394448 C18.3889056,0.924819069 18.3424462,1.08621683 18.2680114,1.15107298 C18.1935765,1.21592914 18.0626911,1.24810967 17.8763542,1.24810967 C17.0745559,1.24810967 16.4635907,1.37782199 16.0439579,1.63625644 C15.6243252,1.89518597 15.26464,2.39423181 14.9669006,3.13339394 C14.4073903,4.6488496 13.5071782,7.10249163 12.2667638,10.49432 C11.026849,13.8861484 10.1271365,16.3576135 9.56762617,17.9102006 L8.25277696,17.9102006 C7.69326666,16.39524 6.80754187,13.9831851 5.59510302,10.674531" id="Fill-1"></path>
                    <path d="M18.9008575,17.5569078 C18.8344156,17.4623465 18.8019441,17.3494671 18.8019441,17.2182695 C18.8159318,16.999937 18.8638898,16.8687394 18.944819,16.8251719 C19.0252486,16.7820995 19.1611297,16.7603158 19.3524622,16.7603158 C19.7780897,16.7603158 20.0938134,16.6835776 20.2996332,16.5310913 C20.5054531,16.3776149 20.6378372,16.1924531 20.6962861,15.9741205 C20.7547349,15.7552929 20.7917026,15.4577467 20.8061899,15.0785115 L20.8061899,6.4110557 C20.7917026,6.03281064 20.7547349,5.7342743 20.6962861,5.51594174 C20.6378372,5.29760919 20.5054531,5.11195226 20.2996332,4.95946603 C20.0938134,4.80598963 19.7780897,4.72974652 19.3524622,4.72974652 L19.2205777,4.72974652 C19.0881935,4.72974652 18.9887805,4.70449717 18.9228383,4.6535034 C18.856896,4.60250963 18.8159318,4.47527275 18.8019441,4.27129766 C18.8019441,4.1401001 18.8344156,4.02771577 18.9008575,3.93265942 C18.9667998,3.83859324 19.0662128,3.79106506 19.1985969,3.79106506 C20.1527618,3.83463256 21.0269966,3.8564163 21.8198028,3.8564163 C22.7010315,3.8564163 23.6187283,3.83463256 24.5733927,3.79106506 C24.7057769,3.79106506 24.8046903,3.83859324 24.8711322,3.93265942 C24.9370744,4.02771577 24.9700456,4.1401001 24.9700456,4.27129766 C24.9555583,4.48963022 24.9076002,4.62082778 24.8266711,4.66439528 C24.7462415,4.70796277 24.602867,4.72974652 24.3975467,4.72974652 C23.97092,4.72974652 23.6556959,4.80598963 23.4498761,4.95946603 C23.2440562,5.11195226 23.1161681,5.30107478 23.0647132,5.52683362 C23.0127587,5.75259245 22.9797875,6.04716811 22.9657998,6.4110557 L22.9657998,15.0785115 C22.9797875,15.4423991 23.0127587,15.7374698 23.0647132,15.9627336 C23.1161681,16.1884924 23.2440562,16.3776149 23.4498761,16.5310913 C23.6556959,16.6835776 23.97092,16.7603158 24.3975467,16.7603158 L24.5299308,16.7603158 C24.6763027,16.7603158 24.7827095,16.7855651 24.8491514,16.8365589 C24.9150937,16.8875527 24.9555583,17.0147895 24.9700456,17.2182695 C24.9700456,17.3494671 24.9370744,17.4623465 24.8711322,17.5569078 C24.8046903,17.650974 24.7057769,17.6985021 24.5733927,17.6985021 C23.6337152,17.6549346 22.7230122,17.6331509 21.8422831,17.6331509 C21.0339905,17.6331509 20.1527618,17.6549346 19.1985969,17.6985021 C19.0662128,17.6985021 18.9667998,17.650974 18.9008575,17.5569078" id="Fill-3"></path>
                    <path d="M36.1176889,16.2688942 C36.7930978,15.6648904 37.2961575,14.860377 37.626868,13.8563443 C37.9575786,12.8518165 38.1224343,11.7457963 38.1224343,10.5377885 C38.1224343,9.41691571 37.9535821,8.3866435 37.6158776,7.44845713 C37.2776736,6.5092806 36.7676201,5.75972167 36.0847177,5.19928528 C35.4013159,4.63934397 34.5755386,4.35863068 33.6063868,4.35863068 C32.1371727,4.35863068 31.0356368,4.97402153 30.3012796,6.20381306 C29.5669223,7.43360458 29.1997436,8.9871818 29.1997436,10.8650398 C29.1997436,12.00027 29.3650989,13.0483653 29.6958095,14.0093256 C30.02652,14.9697908 30.5220863,15.7376679 31.1830078,16.3124617 C31.8434298,16.8877507 32.6517224,17.1749001 33.6063868,17.1749001 C34.6050128,17.1749001 35.4417805,16.8728981 36.1176889,16.2688942 M39.2684313,21.7598837 C38.7978431,21.5994761 38.386703,21.3994617 38.0345112,21.1593454 C37.6818199,20.9192291 37.2267182,20.5805909 36.6687066,20.1439258 C36.2280923,19.7800382 35.8349364,19.4745706 35.4897385,19.2275231 C35.1445406,18.9794855 34.773865,18.7542217 34.3777118,18.5502466 C33.9071236,18.3175566 33.349112,18.127939 32.7026778,17.9828791 C31.1605275,17.6333489 30.0370109,17.1892576 29.3321278,16.6506049 C28.4658859,15.9812498 27.7934745,15.1445559 27.316392,14.1400281 C26.8393096,13.1355003 26.6005186,12.0661164 26.6005186,10.930391 C26.6005186,9.40206315 26.9487138,8.07028409 27.6471026,6.93455874 C28.3439926,5.79982357 29.2367113,4.93045404 30.3232603,4.32595506 C31.4103089,3.72195118 32.5118448,3.41994923 33.6283676,3.41994923 C35.0381337,3.41994923 36.2865411,3.7511612 37.3735897,4.41358514 C38.4601387,5.07600907 39.2934094,5.9488442 39.8744009,7.03357578 C40.4538937,8.11781226 40.7441397,9.28621323 40.7441397,10.5377885 C40.7441397,12.1681039 40.329003,13.5909786 39.4997288,14.8059176 C38.6694555,16.0213517 37.5714165,16.8981475 36.2061115,17.4368001 C35.9708174,17.5387877 35.6695811,17.5972077 35.3024024,17.6115652 L35.3024024,17.6551327 C35.6990553,17.6987002 36.0587405,17.8006877 36.3819576,17.9606002 C36.9549561,18.2373528 37.726281,18.7250117 38.6954328,19.4235769 C39.4148032,19.9325244 39.9952951,20.3077989 40.4359095,20.5484103 C40.8760243,20.7880315 41.3096448,20.9083372 41.7352722,20.9083372 C41.9995409,20.8791272 42.1943704,20.7954578 42.3192611,20.656834 C42.4441518,20.5187052 42.5065972,20.3474058 42.5065972,20.1439258 C42.5065972,19.7948907 42.3707161,19.4706099 42.0994535,19.1725687 C41.8271918,18.8740323 41.4779974,18.7170903 41.0528695,18.703228 C41.0084084,18.4700428 41.096831,18.244284 41.3166386,18.0264465 C41.5374454,17.8076189 41.8676564,17.6987002 42.3087703,17.6987002 C42.4986041,17.6987002 42.715914,17.7645465 42.9582019,17.895249 C43.2004898,18.0264465 43.4133036,18.2225003 43.5971427,18.4848954 C43.7804822,18.7467954 43.8724018,19.0666205 43.8724018,19.4453606 C43.8724018,19.8820257 43.7220334,20.2934415 43.420797,20.6791128 C43.1200602,21.0647841 42.7378947,21.377678 42.2752996,21.6177943 C41.8122049,21.8579106 41.3461128,21.9851474 40.8760243,22 C40.2735516,22 39.7380203,21.9197962 39.2684313,21.7598837" id="Fill-5"></path>
                    <path d="M46.5714395,17.4805161 C45.7701408,17.0874185 45.1646707,16.5710447 44.7535306,15.9304045 C44.3423904,15.2897643 44.1370701,14.5986255 44.1370701,13.8564928 L44.1370701,6.41140226 C44.1220832,6.04701959 44.0886125,5.75293901 44.0376571,5.52668509 C43.9857026,5.30092626 43.857315,5.11229882 43.6519947,4.9593175 C43.4461748,4.8058411 43.1304511,4.72959799 42.7048237,4.72959799 L42.5724395,4.72959799 C42.4255681,4.72959799 42.3226581,4.70434865 42.2642093,4.65335488 C42.2052609,4.60236111 42.1687928,4.47512422 42.1538059,4.27114914 C42.1538059,4.14044666 42.1872766,4.02756724 42.2527194,3.93300598 C42.3191612,3.83844471 42.4185742,3.79141162 42.5504588,3.79141162 C43.4901363,3.83497912 44.3568777,3.85626778 45.1501834,3.85626778 C46.0458995,3.85626778 46.9640958,3.83497912 47.904273,3.79141162 C48.0366571,3.79141162 48.1355705,3.83844471 48.2015128,3.93300598 C48.2679547,4.02756724 48.3004262,4.14044666 48.3004262,4.27114914 C48.2859389,4.47512422 48.2459739,4.60236111 48.1795321,4.65335488 C48.1135898,4.70434865 48.0066833,4.72959799 47.8598119,4.72959799 C47.3897233,4.72959799 47.0445254,4.80287059 46.8247178,4.94842563 C46.6039111,5.09348558 46.4685296,5.27567692 46.416575,5.49400947 C46.3656196,5.71234202 46.3321489,6.01830465 46.3176616,6.41140226 L46.3176616,13.2227838 C46.3176616,14.2273116 46.5564526,15.0719269 47.0340346,15.7556395 C47.5111171,16.4398472 48.4398043,16.781951 49.8205958,16.781951 C51.1719131,16.781951 52.1300744,16.4730179 52.6960791,15.8541614 C53.2610846,15.235305 53.5438371,14.4600016 53.5438371,13.5287464 L53.5438371,7.78674882 C53.5438371,6.7970736 53.507369,6.09850844 53.4334337,5.69055828 C53.359998,5.28310319 53.2136261,5.02120315 52.9928193,4.90485814 C52.7730117,4.78801804 52.3903466,4.72959799 51.8478215,4.72959799 L51.7154373,4.72959799 C51.5830532,4.72959799 51.4841398,4.70434865 51.4176979,4.65335488 C51.3517556,4.60236111 51.3112911,4.47512422 51.2968037,4.27114914 C51.2968037,4.14044666 51.3297749,4.02756724 51.3957172,3.93300598 C51.462159,3.83844471 51.5610724,3.79141162 51.6934566,3.79141162 C52.6476215,3.83497912 53.4704014,3.85626778 54.1607971,3.85626778 C54.8661797,3.85626778 55.6879605,3.83497912 56.6281376,3.79141162 C56.7605218,3.79141162 56.8599348,3.83844471 56.925877,3.93300598 C56.9913198,4.02756724 57.0247905,4.14044666 57.0247905,4.27114914 C57.0103031,4.47512422 56.969339,4.60236111 56.9038963,4.65335488 C56.8374544,4.70434865 56.7310476,4.72959799 56.5841761,4.72959799 C55.9966903,4.72959799 55.5890471,4.78108685 55.361746,4.8825793 C55.1339454,4.98456685 54.9795805,5.22864383 54.8986513,5.61382008 C54.8182217,5.9999865 54.7777571,6.68072859 54.7777571,7.65555125 L54.7777571,13.747079 C54.7777571,14.7223968 54.505995,15.5338413 53.9624707,16.1814127 C53.4189464,16.8294792 52.7400406,17.3057511 51.9247541,17.6117137 C51.1094677,17.9171813 50.2906843,18.0696675 49.468404,18.0696675 C48.3368943,18.0696675 47.3717391,17.8736138 46.5714395,17.4805161" id="Fill-7"></path>
                    <path d="M57.9833515,17.5569078 C57.9169097,17.4623465 57.8844381,17.3494671 57.8844381,17.2182695 C57.8984258,16.999937 57.9463839,16.8687394 58.027313,16.8251719 C58.1077426,16.7820995 58.2436237,16.7603158 58.4349563,16.7603158 C58.8605837,16.7603158 59.1763074,16.6835776 59.3821273,16.5310913 C59.5879471,16.3776149 59.7203313,16.1924531 59.7787801,15.9741205 C59.8372289,15.7552929 59.8741966,15.4577467 59.8886839,15.0785115 L59.8886839,6.4110557 C59.8741966,6.03281064 59.8372289,5.7342743 59.7787801,5.51594174 C59.7203313,5.29760919 59.5879471,5.11195226 59.3821273,4.95946603 C59.1763074,4.80598963 58.8605837,4.72974652 58.4349563,4.72974652 L58.3030717,4.72974652 C58.1706875,4.72974652 58.0712746,4.70449717 58.0053323,4.6535034 C57.93939,4.60250963 57.8984258,4.47527275 57.8844381,4.27129766 C57.8844381,4.1401001 57.9169097,4.02771577 57.9833515,3.93265942 C58.0492938,3.83859324 58.1487068,3.79106506 58.2810909,3.79106506 C59.2352558,3.83463256 60.1094907,3.8564163 60.9022968,3.8564163 C61.7835255,3.8564163 62.7012223,3.83463256 63.6558868,3.79106506 C63.7882709,3.79106506 63.8871843,3.83859324 63.9536262,3.93265942 C64.0195685,4.02771577 64.0525396,4.1401001 64.0525396,4.27129766 C64.0380523,4.48963022 63.9900943,4.62082778 63.9091651,4.66439528 C63.8287355,4.70796277 63.685361,4.72974652 63.4800407,4.72974652 C63.0534141,4.72974652 62.73819,4.80598963 62.5323701,4.95946603 C62.3265502,5.11195226 62.1986622,5.30107478 62.1472072,5.52683362 C62.0952527,5.75259245 62.0622815,6.04716811 62.0482938,6.4110557 L62.0482938,15.0785115 C62.0622815,15.4423991 62.0952527,15.7374698 62.1472072,15.9627336 C62.1986622,16.1884924 62.3265502,16.3776149 62.5323701,16.5310913 C62.73819,16.6835776 63.0534141,16.7603158 63.4800407,16.7603158 L63.6124248,16.7603158 C63.7587967,16.7603158 63.8652036,16.7855651 63.9316454,16.8365589 C63.9975877,16.8875527 64.0380523,17.0147895 64.0525396,17.2182695 C64.0525396,17.3494671 64.0195685,17.4623465 63.9536262,17.5569078 C63.8871843,17.650974 63.7882709,17.6985021 63.6558868,17.6985021 C62.7162092,17.6549346 61.8055063,17.6331509 60.9247771,17.6331509 C60.1164845,17.6331509 59.2352558,17.6549346 58.2810909,17.6985021 C58.1487068,17.6985021 58.0492938,17.650974 57.9833515,17.5569078" id="Fill-9"></path>
                    <path d="M66.0460948,17.5569078 C65.9801525,17.4623465 65.9471814,17.3494671 65.9471814,17.2182695 C65.9616687,16.999937 66.0056302,16.8687394 66.0790659,16.8251719 C66.1525017,16.7820995 66.2918797,16.7603158 66.4976995,16.7603158 C66.9238266,16.7603158 67.2360533,16.6835776 67.4338802,16.5310913 C67.6327061,16.3776149 67.7536003,16.1959187 67.7975619,15.9850124 C67.842023,15.7736111 67.8709976,15.4716091 67.8859845,15.0785115 L67.929946,6.4110557 C67.929946,5.97389551 67.881988,5.64367371 67.7865715,5.4174198 C67.691155,5.19166097 67.540287,5.02828286 67.3349667,4.92629532 C67.1291469,4.82480287 66.835404,4.73717279 66.453738,4.66439528 C66.2034571,4.62082778 66.0495917,4.5767652 65.9911429,4.53319771 C65.9321945,4.48963022 65.9032198,4.36585893 65.9032198,4.16188384 C65.9032198,3.98761387 65.9506783,3.87077377 66.0460948,3.81284881 C66.1415113,3.75492385 66.2918797,3.72571382 66.4976995,3.72571382 C67.4084025,3.72571382 68.1282724,3.78759947 68.6568098,3.91137076 C69.1853472,4.03514204 69.6519389,4.25694019 70.0555856,4.5767652 C70.4597319,4.89758038 70.9043427,5.38474418 71.3884191,6.03974184 L77.424636,13.8997138 L77.4910779,13.8997138 L77.4471163,6.4110557 C77.4321294,6.01795809 77.4026552,5.71595614 77.3591933,5.50504987 C77.3152318,5.29364851 77.1933384,5.11195226 76.9955116,4.95946603 C76.7971852,4.80598963 76.4849584,4.72974652 76.059331,4.72974652 L75.9269468,4.72974652 C75.7795758,4.72974652 75.6731689,4.70449717 75.6077262,4.6535034 C75.5412844,4.60250963 75.5008198,4.47527275 75.4863325,4.27129766 C75.4863325,4.1401001 75.5228005,4.02771577 75.5962363,3.93265942 C75.6701716,3.83859324 75.7650885,3.79106506 75.8824857,3.79106506 C76.8226629,3.83463256 77.5275459,3.8564163 77.9981341,3.8564163 C78.2763905,3.8564163 78.8129209,3.84205883 79.6062266,3.81284881 L80.0688217,3.79106506 C80.2007063,3.79106506 80.3001193,3.83859324 80.3660616,3.93265942 C80.4325034,4.02771577 80.464975,4.1401001 80.464975,4.27129766 C80.4504877,4.48963022 80.4065262,4.62082778 80.3330905,4.66439528 C80.2591552,4.70796277 80.1202767,4.72974652 79.9144569,4.72974652 C79.4883298,4.72974652 79.1766026,4.80598963 78.9782762,4.95946603 C78.7799498,5.11195226 78.658556,5.29364851 78.6145945,5.50504987 C78.570633,5.71595614 78.5411588,6.01795809 78.5261719,6.4110557 L78.48271,17.4148183 C78.4677231,17.604436 78.2843835,17.6985021 77.9316922,17.6985021 C77.6524366,17.6985021 77.4396229,17.604436 77.293251,17.4148183 L68.9875204,6.4110557 L68.9210785,6.4110557 L68.9655396,15.0785115 C68.9795274,15.4716091 69.0095011,15.7736111 69.0534627,15.9850124 C69.0974242,16.1959187 69.2188179,16.3776149 69.4166448,16.5310913 C69.6154708,16.6835776 69.927198,16.7603158 70.353325,16.7603158 L70.4857091,16.7603158 C70.632081,16.7603158 70.7389875,16.7855651 70.8044302,16.8365589 C70.870872,16.8875527 70.910837,17.0147895 70.9263235,17.2182695 C70.9263235,17.3494671 70.8928528,17.4623465 70.8269105,17.5569078 C70.7609682,17.650974 70.6615552,17.6985021 70.5296707,17.6985021 C69.5894935,17.6549346 68.877117,17.6331509 68.3925411,17.6331509 C68.0982987,17.6331509 67.5847481,17.6480035 66.8498913,17.6767184 L66.3438342,17.6985021 C66.2114501,17.6985021 66.1125366,17.650974 66.0460948,17.5569078" id="Fill-11"></path>
                    <path d="M85.3011922,17.2730755 C84.2660982,16.7418491 83.4468152,15.9338701 82.8448421,14.8491386 C82.2423694,13.7653971 81.9416326,12.4296574 81.9416326,10.8434046 C81.9416326,9.37300166 82.2683467,8.07785889 82.9217748,6.9569861 C83.5757024,5.83611331 84.4824089,4.96674378 85.6428932,4.34788734 C86.8028779,3.72952598 88.1322145,3.42009776 89.6304032,3.42009776 C90.3647605,3.42009776 91.0916243,3.52901649 91.8114943,3.74734904 C92.5308647,3.9656816 93.1258439,4.30828052 93.5959325,4.77366057 C94.066021,5.2395357 94.3013151,5.81383448 94.3013151,6.49804216 C94.3013151,7.13868235 94.1099826,7.69169247 93.7283166,8.1575676 C93.3461511,8.62344273 92.8395944,8.85613275 92.2081471,8.85613275 C91.8994173,8.85613275 91.6021775,8.78385032 91.315928,8.63829529 C91.0296785,8.49274025 90.8788106,8.30361772 90.8643233,8.07043261 C90.8643233,8.05607514 90.9632367,7.97587135 91.1615631,7.83031631 C91.3598895,7.68476128 91.5432291,7.48821247 91.7125808,7.2406699 C91.8809335,6.99312732 91.9658592,6.69508605 91.9658592,6.34555594 C91.9658592,5.73412577 91.7230717,5.2395357 91.2389953,4.86079556 C90.7539199,4.4825505 90.1294664,4.29293288 89.3661345,4.29293288 C88.454932,4.29293288 87.6326517,4.54443614 86.8982944,5.04645249 C86.1644367,5.54846884 85.5839448,6.28367029 85.1583173,7.25156177 C84.7316907,8.21994833 84.5193765,9.37300166 84.5193765,10.712207 C84.5193765,12.0078448 84.7286933,13.1287176 85.1468273,14.0743303 C85.565461,15.0209331 86.1529468,15.7447476 86.9097844,16.2467639 C87.6656228,16.7487803 88.5433546,16.9997885 89.5419806,16.9997885 C90.0125687,16.9997885 90.4237089,16.9745391 90.7759006,16.9235453 C91.128592,16.8725516 91.5102579,16.781951 91.9218976,16.6507534 L91.9218976,14.4238604 C91.9218976,13.9144178 91.9029143,13.5579565 91.8669457,13.3539814 C91.8294785,13.1505014 91.7125808,12.9975201 91.5142544,12.8955325 C91.315928,12.793545 90.9817205,12.7430463 90.5116319,12.7430463 C90.3497736,12.7430463 90.2323763,12.7173019 90.1594402,12.665813 C90.0855049,12.6153143 90.0415434,12.4880774 90.027056,12.2841024 C90.027056,12.1529048 90.0670211,12.0405205 90.1479502,11.9454641 C90.2283798,11.8513979 90.3427797,11.8038698 90.4896512,11.8038698 C91.4148414,11.8474373 92.2221349,11.869221 92.9130302,11.869221 C93.5739517,11.869221 94.3667578,11.8474373 95.2924476,11.8038698 C95.4248318,11.8038698 95.5272421,11.8513979 95.6006779,11.9454641 C95.6741136,12.0405205 95.7110812,12.1529048 95.7110812,12.2841024 C95.6960944,12.4880774 95.6521328,12.6153143 95.5786971,12.665813 C95.5052614,12.7173019 95.3873646,12.7430463 95.2260058,12.7430463 C94.7853914,12.7430463 94.4696678,12.8009713 94.2788348,12.9173163 C94.0880018,13.0336613 93.9706046,13.1980296 93.926643,13.4084408 C93.8826815,13.6198421 93.8602012,13.9584804 93.8602012,14.4238604 L93.8602012,16.9997885 C92.9934598,17.4077386 92.2006537,17.6879568 91.4807837,17.8404431 C90.7614133,17.9934244 89.8577043,18.0696675 88.7711552,18.0696675 C87.4937732,18.0696675 86.3367859,17.8043018 85.3011922,17.2730755" id="Fill-13"></path>
                    <path d="M106.286625,16.1421029 C106.969028,15.5400794 107.478582,14.7301201 107.816286,13.7117299 C108.153991,12.6938348 108.322843,11.5680112 108.322843,10.3337639 C108.322843,9.18962212 108.149994,8.13756616 107.804797,7.1790813 C107.459599,6.22010136 106.942551,5.45469971 106.252655,4.88238127 C105.562759,4.31055792 104.722994,4.02390361 103.73286,4.02390361 C102.232673,4.02390361 101.104161,4.65216667 100.347323,5.90819771 C99.5894868,7.16422875 99.2108182,8.75097667 99.2108182,10.6684415 C99.2108182,11.8279309 99.3791708,12.8908787 99.7168753,13.8567899 C100.05458,14.8231961 100.560637,15.596024 101.235546,16.1757687 C101.910455,16.7555134 102.742727,17.0451383 103.73286,17.0451383 C104.752968,17.0451383 105.603723,16.7441265 106.286625,16.1421029 M99.9866392,17.0119676 C98.899091,16.3356812 98.059326,15.4395771 97.4673441,14.3251404 C96.8743631,13.2102087 96.578622,12.0135878 96.578622,10.735278 C96.578622,9.17427448 96.9343106,7.81427556 97.6471867,6.65478612 C98.3590637,5.49529669 99.2702662,4.60760901 100.380794,3.99023782 C101.490823,3.3738568 102.615338,3.06492367 103.755341,3.06492367 C105.19558,3.06492367 106.466468,3.40356191 107.569003,4.07984823 C108.671538,4.75613456 109.518297,5.648278 110.111278,6.75528841 C110.70326,7.8627939 111,9.05594912 111,10.3337639 C111,11.8947674 110.640315,13.258727 109.919945,14.4251476 C109.200075,15.5925584 108.277383,16.4842068 107.152867,17.1010829 C106.027852,17.7174639 104.894843,18.026397 103.755341,18.026397 C102.330588,18.026397 101.074187,17.6882539 99.9866392,17.0119676" id="Fill-15"></path>
                </g>
                <g id="Group-32">
                    <path d="M16.2305973,18.6163787 C17.5106395,16.9009617 18.1511576,14.5049824 18.1511576,11.4289413 C18.1511576,9.48883861 17.8043138,7.75540664 17.1111233,6.22914582 C16.4184296,4.70288499 15.413676,3.51390279 14.0978562,2.66219921 C12.7820364,1.81049563 11.2197489,1.38414342 9.41049665,1.38414342 L6.66108922,1.41967277 L6.66108922,18.7760106 C6.66108922,19.6987729 6.93737162,20.3322962 7.48943952,20.6750794 C8.04150741,21.018363 8.93992213,21.1895044 10.1856775,21.1895044 C12.9350849,21.1895044 14.9495613,20.3322962 16.2305973,18.6163787 M0.158514544,22.378987 C0.0526725444,22.2248597 0,22.0417084 0,21.8285323 C0.0233548074,21.4732388 0.0934192296,21.2605631 0.211683999,21.1895044 C0.328954947,21.1184457 0.551570983,21.0834167 0.881022841,21.0834167 C1.56228754,21.0834167 2.06714891,20.9588138 2.39660077,20.7106088 C2.72555572,20.4619033 2.93077987,20.1546495 3.01326707,19.7873461 C3.09525735,19.4210435 3.1484268,18.9416474 3.17227852,18.3501588 L3.17227852,4.25951873 C3.1484268,3.66803011 3.09525735,3.18863409 3.01326707,2.82183108 C2.93077987,2.45502807 2.72555572,2.14727383 2.39660077,1.8990688 C2.06714891,1.65036334 1.56228754,1.52626082 0.881022841,1.52626082 L0.669835753,1.52626082 C0.434796946,1.52626082 0.269822562,1.48522693 0.175906422,1.4021583 C0.0819902813,1.3195901 0.0233548074,1.11241895 0,0.780644881 C0,0.567969192 0.0526725444,0.384817893 0.158514544,0.23069057 C0.264356543,0.0770636613 0.410945228,0 0.59927442,0 C2.15013301,0.0710587007 3.54794308,0.106588051 4.79320154,0.106588051 L10.2915195,0.106588051 C12.5474945,0.106588051 14.5972515,0.562464645 16.4417844,1.47321701 C18.2863173,2.38396937 19.7427628,3.69104913 20.8126118,5.3949567 C21.88097,7.09836387 22.415646,9.11002567 22.415646,11.4289413 C22.415646,13.8424351 21.8104087,15.8836213 20.6009278,17.5514991 C19.3899562,19.2198773 17.8162397,20.4619033 15.8777907,21.2780775 C13.9398386,22.0947522 11.8657329,22.5030895 9.65696441,22.5030895 L4.79320154,22.5030895 C3.54794308,22.5030895 2.15013301,22.5381184 0.59927442,22.6091771 C0.410945228,22.6091771 0.264356543,22.5321135 0.158514544,22.378987" id="Fill-18"></path>
                    <path d="M25.3147727,22.4159175 C25.240733,22.3083286 25.2034646,22.1797224 25.2034646,22.0305992 C25.2203596,21.7823942 25.2690569,21.633271 25.3515441,21.58373 C25.4335343,21.5336887 25.5900612,21.5091684 25.8206279,21.5091684 C26.2976622,21.5091684 26.6504689,21.4220965 26.8810355,21.2484531 C27.1116021,21.0743092 27.2552093,20.8591315 27.312851,20.601919 C27.3709895,20.3457073 27.4077609,20.0099299 27.424159,19.5960881 L27.424159,9.73243984 C27.4077609,9.31859797 27.3709895,8.983321 27.312851,8.72610852 C27.2552093,8.46939646 27.1116021,8.2542187 26.8810355,8.08007484 C26.6504689,7.90593099 26.2976622,7.81935947 25.8206279,7.81935947 L25.6725484,7.81935947 C25.508071,7.81935947 25.3922907,7.79033549 25.3266985,7.73228754 C25.2616032,7.67474 25.2203596,7.52962012 25.2034646,7.29742831 C25.2034646,7.14830512 25.240733,7.0201993 25.3147727,6.91261042 C25.3883155,6.80502154 25.491176,6.75097689 25.6228574,6.75097689 C26.7091044,6.80051782 27.6870248,6.82553849 28.5591032,6.82553849 L36.3059426,6.82553849 C36.7332858,6.82553849 36.9474544,7.0242026 36.9474544,7.42153083 L37.0214941,10.8999043 C37.0214941,11.0490275 36.9474544,11.1696271 36.799375,11.2602019 C36.6512956,11.3517776 36.5037131,11.3968148 36.3556336,11.3968148 C36.1578631,11.3968148 35.9854351,11.3597842 35.8373557,11.2852226 C35.6892763,11.210661 35.6067891,11.0985684 35.590391,10.9494452 C35.4587096,10.1382751 35.3146055,9.52126539 35.1590724,9.0989165 C35.0020486,8.67606719 34.7719789,8.36180758 34.4678695,8.15463644 C34.1637601,7.9474653 33.7314477,7.83587311 33.1724231,7.81935947 L29.8664756,7.81935947 L29.8664756,14.1300727 L34.3322129,14.1300727 C34.4469993,14.1465863 34.5379339,14.2086376 34.6035262,14.3162264 C34.6691184,14.4243157 34.7024114,14.5524216 34.7024114,14.7015448 C34.7024114,14.8341543 34.6691184,14.9497498 34.6035262,15.0493321 C34.5379339,15.1489143 34.4469993,15.1984552 34.3322129,15.1984552 L29.8664756,15.1984552 L29.8664756,19.893834 C29.8997686,20.2421218 29.9410122,20.5193508 29.9897094,20.7265219 C30.0394005,20.9336931 30.1874799,21.1203472 30.4344446,21.2854837 C30.6809123,21.4511205 31.067012,21.5256821 31.5937375,21.5091684 L33.863626,21.5091684 C34.4390487,21.4926548 34.8748395,21.3970758 35.1709983,21.2234324 C35.4671571,21.049789 35.7012021,20.7805666 35.8741271,20.4157652 C36.047052,20.0514643 36.2567484,19.4554719 36.5037131,18.6267873 C36.6180025,18.3290414 36.8982602,18.2134459 37.3420016,18.279 C37.506479,18.3125277 37.6505832,18.3785823 37.773817,18.4776642 C37.8970509,18.5772464 37.9507173,18.7013489 37.9343192,18.8504721 L37.4408868,21.9810583 C37.3916926,22.1967364 37.317156,22.3373526 37.2187677,22.4034072 C37.1203794,22.4699621 36.955405,22.5029894 36.7253353,22.5029894 L28.5834519,22.5029894 C27.6954723,22.5029894 26.7091044,22.5280101 25.6228574,22.577551 C25.491176,22.577551 25.3883155,22.5235064 25.3147727,22.4159175" id="Fill-20"></path>
                    <path d="M41.3760228,22.0929007 C40.4631977,21.4884013 40.0065366,20.5981659 40.0065366,19.4221944 C40.0065366,18.8257017 40.2077855,18.3332949 40.6112771,17.9434729 C41.0137748,17.5546517 41.5360281,17.3599909 42.1775399,17.3599909 C42.5561859,17.3765045 42.8438973,17.471583 43.0416678,17.6457269 C43.2384445,17.8193703 43.3373297,17.9810039 43.3373297,18.1301271 C43.3373297,18.1466407 43.2548425,18.2046887 43.090365,18.3042709 C42.9258876,18.4033528 42.7778081,18.552476 42.6466237,18.7511401 C42.5149423,18.9498042 42.4493501,19.2235303 42.4493501,19.5708172 C42.4493501,20.3499608 42.683892,20.9499565 43.1524789,21.3723054 C43.6215627,21.7946543 44.3485432,22.0058287 45.3359049,22.0058287 C46.009716,22.0058287 46.6025305,21.8737196 47.112361,21.6085005 C47.6216946,21.3437818 48.0122665,20.9914908 48.2840767,20.5526283 C48.55539,20.1137657 48.6910466,19.6538858 48.6910466,19.173489 C48.6910466,18.5774966 48.5225939,18.0640725 48.1851914,17.6332166 C47.847789,17.2028611 47.4328685,16.8425634 46.9394361,16.5523237 C46.4460036,16.2630847 45.7716957,15.9273073 44.9165122,15.5459923 C43.9296474,15.0986228 43.1316086,14.6932879 42.5233898,14.3284866 C41.9146741,13.964686 41.3963961,13.4802859 40.9690528,12.8752861 C40.5407157,12.2707867 40.327541,11.5211675 40.327541,10.6264284 C40.327541,9.18573822 40.8165012,8.10934903 41.7954155,7.39676037 C42.7738329,6.68467212 44.0608318,6.32837779 45.6564124,6.32837779 C46.906143,6.32837779 47.9958684,6.59359688 48.9250916,7.12353466 C49.8543148,7.65397285 50.3194233,8.43211566 50.3194233,9.45896393 C50.3194233,10.0554567 50.1181744,10.5483639 49.7146829,10.9376855 C49.3116882,11.3265067 48.7899319,11.5211675 48.14842,11.5211675 C47.769774,11.5046538 47.4820626,11.4095753 47.2847891,11.2354314 C47.0875155,11.061788 46.9886302,10.9001545 46.9886302,10.7510313 C46.9886302,10.7345176 47.0999382,10.6764697 47.3220574,10.5768874 C47.5436796,10.4778056 47.7414501,10.3286824 47.9138781,10.1300183 C48.0868031,9.93085375 48.1732656,9.65762804 48.1732656,9.30984074 C48.1732656,8.69733475 47.9387237,8.21693791 47.4701368,7.8691506 C47.001053,7.52086289 46.40476,7.34721944 45.6812579,7.34721944 C44.677995,7.34721944 43.9172246,7.58291415 43.3989466,8.05530438 C42.8806687,8.5271942 42.6217782,9.11117662 42.6217782,9.80675123 C42.6217782,10.3867303 42.7778081,10.8711305 43.090365,11.2604521 C43.4029219,11.6497737 43.9048018,12.0345916 44.5955078,12.4159066 C45.1545325,12.7136526 45.7632482,13.011899 46.4211581,13.3101453 C47.4736152,13.7905422 48.3084253,14.2294047 48.9250916,14.626733 C49.5422548,15.0245616 50.0605328,15.5459923 50.4794286,16.192026 C50.8993182,16.8380597 51.1090145,17.6417236 51.1090145,18.6020169 C51.1090145,19.4307014 50.8496271,20.1798203 50.3313492,20.8508746 C49.8135681,21.5214286 49.1144146,22.047363 48.2348825,22.4281776 C47.3543566,22.8094926 46.388362,22.9996497 45.3359049,22.9996497 C43.608643,22.9996497 42.2888479,22.6974 41.3760228,22.0929007" id="Fill-22"></path>
                    <path d="M55.833543,22.4159175 C55.7600002,22.3083286 55.722235,22.1797224 55.722235,22.0305992 C55.73913,21.7823942 55.7883241,21.633271 55.8708113,21.58373 C55.9528016,21.5336887 56.1088316,21.5091684 56.3398951,21.5091684 C56.8164326,21.5091684 57.1697361,21.4220965 57.4003028,21.2484531 C57.6303725,21.0743092 57.7739797,20.8591315 57.8316213,20.601919 C57.8897599,20.3457073 57.9265313,20.0099299 57.9429293,19.5960881 L57.9429293,7.74479788 L56.240513,7.74479788 C55.6809914,7.76131152 55.2496728,7.88141073 54.9455634,8.10509551 C54.6409571,8.3287803 54.4108874,8.66005396 54.2543605,9.0989165 C54.0983305,9.53777903 53.962177,10.1632958 53.8478875,10.9744659 C53.8309925,11.1070754 53.7321073,11.2151647 53.5512317,11.2977329 C53.3703562,11.3808015 53.1815301,11.4218354 52.9842565,11.4218354 C52.8361771,11.4218354 52.7000235,11.3762978 52.5767897,11.2852226 C52.4535558,11.1941473 52.3919388,11.0740481 52.3919388,10.9249249 L52.4659786,7.42153083 C52.4659786,7.0242026 52.6880977,6.82553849 53.131839,6.82553849 L65.1968331,6.82553849 C65.6241764,6.82553849 65.838345,7.0242026 65.838345,7.42153083 L65.9367333,10.9249249 C65.9367333,11.0740481 65.8706442,11.1941473 65.7394597,11.2852226 C65.6072815,11.3762978 65.4681464,11.4218354 65.320067,11.4218354 C65.1222965,11.4218354 64.9374457,11.3808015 64.7650177,11.2977329 C64.5920927,11.2151647 64.4976797,11.1070754 64.4807847,10.9744659 C64.3496002,10.1462817 64.2094714,9.51726209 64.0618889,9.08640616 C63.9138095,8.65555024 63.6832429,8.3287803 63.370686,8.10509551 C63.0581291,7.88141073 62.6223383,7.76131152 62.0633137,7.74479788 L60.3857428,7.74479788 L60.3857428,19.5960881 C60.401644,20.0099299 60.4389123,20.3457073 60.4965539,20.601919 C60.5541956,20.8591315 60.6978028,21.0743092 60.9283694,21.2484531 C61.1584391,21.4220965 61.5122396,21.5091684 61.989274,21.5091684 L62.1373534,21.5091684 C62.2849359,21.5091684 62.3962439,21.5381924 62.4702836,21.5962404 C62.5443233,21.6542883 62.5895422,21.7994082 62.6059403,22.0305992 C62.6059403,22.1797224 62.5691689,22.3083286 62.4946322,22.4159175 C62.4210894,22.5235064 62.3097814,22.577551 62.161702,22.577551 C61.1092449,22.5280101 60.1387782,22.5029894 59.2507986,22.5029894 C58.2639337,22.5029894 57.2358253,22.5280101 56.1669702,22.577551 C56.0188907,22.577551 55.9075827,22.5235064 55.833543,22.4159175" id="Fill-24"></path>
                    <path d="M67.4046575,22.4159175 C67.3311147,22.3083286 67.2933495,22.1797224 67.2933495,22.0305992 C67.3102444,21.7823942 67.3634139,21.633271 67.4543486,21.58373 C67.5442894,21.5336887 67.6963441,21.5091684 67.9105127,21.5091684 C68.3875471,21.5091684 68.7408506,21.4220965 68.9714172,21.2484531 C69.2014869,21.0743092 69.3495664,20.8631348 69.4156555,20.6144293 C69.4812477,20.3662243 69.5224913,20.026944 69.5388894,19.5960881 L69.5388894,9.73243984 C69.5224913,9.30158392 69.4812477,8.96230364 69.4156555,8.71359819 C69.3495664,8.46539315 69.2014869,8.2542187 68.9714172,8.08007484 C68.7408506,7.90593099 68.3875471,7.81935947 67.9105127,7.81935947 L67.7624333,7.81935947 C67.6143539,7.81935947 67.5030458,7.79033549 67.429503,7.73228754 C67.3549664,7.67474 67.3102444,7.52962012 67.2933495,7.29742831 C67.2933495,7.14830512 67.3311147,7.0201993 67.4046575,6.91261042 C67.4786972,6.80502154 67.5895083,6.75097689 67.7375877,6.75097689 C68.8064429,6.80051782 69.7853571,6.82553849 70.6738336,6.82553849 C71.6602016,6.82553849 72.68831,6.80051782 73.757662,6.75097689 C73.9057414,6.75097689 74.0170495,6.80502154 74.0905923,6.91261042 C74.164632,7.0201993 74.2019003,7.14830512 74.2019003,7.29742831 C74.1855022,7.54613376 74.1313389,7.69525695 74.0413981,7.74479788 C73.9509603,7.7943388 73.7904581,7.81935947 73.5603884,7.81935947 C73.0833541,7.81935947 72.7295536,7.90593099 72.4994839,8.08007484 C72.2689173,8.2542187 72.1253101,8.46939646 72.0676684,8.72610852 C72.0100268,8.983321 71.9727584,9.31859797 71.9563604,9.73243984 L71.9563604,19.5960881 C71.9727584,20.0099299 72.0100268,20.3457073 72.0676684,20.601919 C72.1253101,20.8591315 72.2689173,21.0743092 72.4994839,21.2484531 C72.7295536,21.4220965 73.0833541,21.5091684 73.5603884,21.5091684 L73.7084679,21.5091684 C73.8729453,21.5091684 73.9922039,21.5381924 74.0657467,21.5962404 C74.1402833,21.6542883 74.1855022,21.7994082 74.2019003,22.0305992 C74.2019003,22.1797224 74.164632,22.3083286 74.0905923,22.4159175 C74.0170495,22.5235064 73.9057414,22.577551 73.757662,22.577551 C72.704708,22.5280101 71.6850471,22.5029894 70.6981823,22.5029894 C69.7938046,22.5029894 68.8064429,22.5280101 67.7375877,22.577551 C67.5895083,22.577551 67.4786972,22.5235064 67.4046575,22.4159175" id="Fill-26"></path>
                    <path d="M76.4344708,22.4159175 C76.3604311,22.3083286 76.3231628,22.1797224 76.3231628,22.0305992 C76.3395608,21.7823942 76.388755,21.633271 76.4712422,21.58373 C76.5532325,21.5336887 76.7097594,21.5091684 76.940326,21.5091684 C77.4173603,21.5091684 77.7666886,21.4220965 77.9888078,21.2484531 C78.21043,21.0743092 78.3465835,20.8671381 78.3957777,20.6269396 C78.4449719,20.3872416 78.477768,20.0429572 78.494663,19.5960881 L78.5438571,9.73243984 C78.5438571,9.23552935 78.4901908,8.85871807 78.3833549,8.602006 C78.2760222,8.34529394 78.1075694,8.15914016 77.8774997,8.04254384 C77.6469331,7.92694835 77.3179782,7.8278665 76.8906349,7.74479788 C76.6108741,7.69525695 76.4384461,7.64521561 76.3728539,7.59567469 C76.3067647,7.54613376 76.2739686,7.4055176 76.2739686,7.17332579 C76.2739686,6.97466168 76.3271381,6.84205213 76.4344708,6.77599756 C76.5413066,6.709943 76.7097594,6.6764153 76.940326,6.6764153 C77.95949,6.6764153 78.7654793,6.74697359 79.3582939,6.88758975 C79.9501147,7.02820591 80.471871,7.28091467 80.9245567,7.64521561 C81.3767456,8.00951656 81.8741533,8.564475 82.4172768,9.31009094 L89.1772512,18.2544798 L89.251291,18.2544798 L89.2015999,9.73243984 C89.1852018,9.28507028 89.1529026,8.94178669 89.1032115,8.70108786 C89.0540174,8.46138984 88.9183607,8.2542187 88.6962416,8.08007484 C88.4741225,7.90593099 88.1242973,7.81935947 87.6472629,7.81935947 L87.4996804,7.81935947 C87.3352029,7.81935947 87.2159443,7.79033549 87.1419046,7.73228754 C87.0678649,7.67474 87.022646,7.52962012 87.0057511,7.29742831 C87.0057511,7.14830512 87.0469947,7.0201993 87.1294819,6.91261042 C87.2114721,6.80502154 87.318308,6.75097689 87.4504862,6.75097689 C88.5024464,6.80051782 89.2920376,6.82553849 89.8187631,6.82553849 C90.1308231,6.82553849 90.7310913,6.80902485 91.6200647,6.77599756 L92.1378458,6.75097689 C92.2859252,6.75097689 92.3967363,6.80502154 92.470776,6.91261042 C92.5448157,7.0201993 92.582084,7.14830512 92.582084,7.29742831 C92.565189,7.54613376 92.5159949,7.69525695 92.4340046,7.74479788 C92.3515174,7.7943388 92.1954874,7.81935947 91.9654177,7.81935947 C91.4878864,7.81935947 91.1385582,7.90593099 90.9169359,8.08007484 C90.6943199,8.2542187 90.5591602,8.46138984 90.5094691,8.70108786 C90.4602749,8.94178669 90.4269819,9.28507028 90.4110807,9.73243984 L90.3613897,22.254284 C90.3449916,22.4699621 90.1392705,22.577551 89.7447234,22.577551 C89.4321665,22.577551 89.1936493,22.4699621 89.0291718,22.254284 L79.7279955,9.73243984 L79.6539558,9.73243984 L79.70315,19.5960881 C79.7195481,20.0429572 79.7528411,20.3872416 79.8020353,20.6269396 C79.8512294,20.8671381 79.9868861,21.0743092 80.2095021,21.2484531 C80.4311243,21.4220965 80.7804526,21.5091684 81.257487,21.5091684 L81.4055664,21.5091684 C81.5700439,21.5091684 81.6893025,21.5381924 81.7638391,21.5962404 C81.8373819,21.6542883 81.8826008,21.7994082 81.8989988,22.0305992 C81.8989988,22.1797224 81.8622274,22.3083286 81.7876908,22.4159175 C81.714148,22.5235064 81.60284,22.577551 81.4552575,22.577551 C80.4023035,22.5280101 79.6047617,22.5029894 79.0616382,22.5029894 C78.7326832,22.5029894 78.1572605,22.5195031 77.3348732,22.5525304 L76.767401,22.577551 C76.6193216,22.577551 76.5080136,22.5235064 76.4344708,22.4159175" id="Fill-28"></path>
                    <path d="M104.831631,20.9002654 C105.579978,20.2297115 106.139003,19.3269658 106.509202,18.1920282 C106.8794,17.0580915 107.064251,15.8030547 107.064251,14.4279187 C107.064251,13.1528654 106.874928,11.9808973 106.496779,10.9125147 C106.118133,9.84413211 105.550661,8.9914277 104.794363,8.35340064 C104.037567,7.71587398 103.116792,7.39711066 102.031042,7.39711066 C100.386267,7.39711066 99.148462,8.09668857 98.318621,9.49634481 C97.4877862,10.896001 97.0723687,12.6644619 97.0723687,14.8007267 C97.0723687,16.092794 97.2572195,17.2772725 97.6274181,18.3536617 C97.9976166,19.4305513 98.552666,20.2917628 99.2930631,20.9377964 C100.032963,21.5838301 100.945788,21.9065968 102.031042,21.9065968 C103.149588,21.9065968 104.082786,21.5713198 104.831631,20.9002654 M97.9235769,21.8695662 C96.7304941,21.1159436 95.8097184,20.1176189 95.160256,18.8755929 C94.5102967,17.6330664 94.1858139,16.2999652 94.1858139,14.8752883 C94.1858139,13.1358514 94.5758889,11.6205996 95.3580265,10.3285323 C96.1386733,9.03646491 97.137961,8.04714764 98.3553924,7.35957965 C99.5723269,6.67251208 100.80566,6.32822767 102.055887,6.32822767 C103.63507,6.32822767 105.028407,6.70553936 106.237888,7.45916192 C107.446872,8.21278447 108.375599,9.20660546 109.025558,10.4406249 C109.67502,11.6746443 110,13.0037422 110,14.4279187 C110,16.1673556 109.605453,17.6871111 108.816358,18.9871851 C108.026767,20.2877595 107.015057,21.2815804 105.781227,21.968648 C104.547895,22.6557156 103.305618,23 102.055887,23 C100.4936,23 99.1156659,22.6226883 97.9235769,21.8695662" id="Fill-30"></path>
                </g>
            </g>
        </g>
    </g>
</svg>