<?xml version="1.0" encoding="UTF-8"?>
<svg id="Layer_1" data-name="Layer 1" xmlns="http://www.w3.org/2000/svg" version="1.1" viewBox="0 0 114 56.7">
  <defs>
    <style>
      .cls-1 {
        fill: none;
      }

      .cls-1, .cls-2, .cls-3 {
        stroke-width: 0px;
      }

      .cls-2 {
        display: none;
        fill: #000;
      }

      .cls-4 {
        isolation: isolate;
      }

      .cls-3 {
        fill: #fff;
      }
    </style>
  </defs>
  <rect class="cls-2" x="-4.3" y="-3.9" width="122.9" height="64.2"/>
  <path class="cls-1" d="M194.8,54.9"/>
  <g class="cls-4">
    <g class="cls-4">
      <g>
        <path class="cls-3" d="M95,30.2h16.3c-5.7,1.9-7.5,5.7-8.5,16.5-.7,7.7-4.2,9.7-4.2,9.7-2.6,0-5.2-11.1-7.5-22.9.9-2,2.1-3,3.9-3.3Z"/>
        <path class="cls-3" d="M98.5,56.3h-16.3c2.9,0,4.9-5.5,6.1-12.5.8-4.7,1.6-8.1,2.7-10.4,2.3,11.8,4.9,22.9,7.5,22.9Z"/>
        <path class="cls-3" d="M91,33.4c-1.2,2.2-2,5.7-2.7,10.4-1.2,7-3.2,12.5-6.1,12.5-3.1-.7-5.6-12.5-8.9-30.5,0-.6-.2-1.1-.3-1.7C75.5,11.2,78.1,0,80.7,0h.9c3.1.7,5.6,12.5,8.9,30.5.2.9.3,1.9.5,2.9Z"/>
        <path class="cls-3" d="M65.3,0h15.4C78.1,0,75.4,11.2,73,24.2,70.7,12,68,0,65.3,0Z"/>
        <path class="cls-3" d="M73,24.2c-.2,1.3-.5,2.6-.7,4-3.7,20.2-5.9,27.6-8.5,28.2-2.9,0-5.7-13.1-8-25.9,0-.2,0-.4,0-.6,0-.6.2-1.1.3-1.7C59.7,7.9,61.9.6,64.4,0h.9C68,0,70.7,12,73,24.2Z"/>
        <path class="cls-3" d="M63.8,56.3h-16.3c2.8,0,5.6-12.5,8.1-26.5,0,.2,0,.4,0,.6,2.4,12.9,5.3,25.9,8.1,25.9Z"/>
        <path class="cls-3" d="M55.7,29.9c-2.6,14-5.4,26.5-8.1,26.5-3.1-.7-5.6-12.5-8.9-30.5,0-.6-.2-1.1-.3-1.7C40.8,11.2,43.4,0,46,0h.9c3.1.7,5.5,12.2,8.8,29.9Z"/>
        <path class="cls-3" d="M30.6,0h15.4C43.4,0,40.8,11.2,38.3,24.2,36,12,33.3,0,30.6,0Z"/>
        <path class="cls-3" d="M38.3,24.2c-.2,1.3-.5,2.6-.7,4-3.7,20.2-5.9,27.6-8.5,28.2-2.9,0-1.8-.5-3.6-8.6-1.8-8.1-3.2-12.9-5.1-15.4.3-1.4.5-2.8.8-4.2C25,7.9,27.2.6,29.7,0h.9C33.3,0,36,12,38.3,24.2Z"/>
        <path class="cls-3" d="M29.1,56.3H12.8c2.6,0,5.2-11.1,7.7-24,1.8,2.5,3.2,7.3,5.1,15.4,1.8,8.1.6,8.6,3.5,8.6Z"/>
        <path class="cls-3" d="M20.5,32.3c-2.5,12.9-5.1,24-7.7,24-.3-.4-2.1,0-3.8-10-1.5-9.2-4.2-15-8.6-16.1h16.3c1.6,0,2.7.7,3.8,2.1Z"/>
      </g>
    </g>
  </g>
</svg>