<?xml version="1.0" encoding="UTF-8"?>
<svg width="41px" height="26px" viewBox="0 0 41 26" version="1.1" xmlns="http://www.w3.org/2000/svg" xmlns:xlink="http://www.w3.org/1999/xlink">
    <title>behance</title>
    <g id="Page-1" stroke="none" stroke-width="1" fill="none" fill-rule="evenodd">
        <g id="iMac-21.5&quot;" transform="translate(-927, -3725)" fill="#D8D8D8" fill-rule="nonzero">
            <g id="behance" transform="translate(927, 3725)">
                <path d="M16.5138889,11.6499585 C18.7774306,10.5555248 19.9590278,8.89947383 19.9590278,6.32179452 C19.9590278,1.23843811 16.2149306,0 11.8942708,0 L0,0 L0,25.5175852 L12.2288194,25.5175852 C16.8128472,25.5175852 21.1192708,23.2927167 21.1192708,18.1085572 C21.1192708,14.9044586 19.6173611,12.5355857 16.5138889,11.6499585 L16.5138889,11.6499585 Z M5.54496528,4.35613403 L10.7482639,4.35613403 C12.7484375,4.35613403 14.5493056,4.92495154 14.5493056,7.27222376 C14.5493056,9.43949045 13.1470486,10.3107173 11.1682292,10.3107173 L5.54496528,10.3107173 L5.54496528,4.35613403 L5.54496528,4.35613403 Z M11.4743056,21.1830518 L5.54496528,21.1830518 L5.54496528,14.1556356 L11.5881944,14.1556356 C14.0296875,14.1556356 15.5743056,15.1852672 15.5743056,17.7989477 C15.5743056,20.376627 13.7307292,21.1830518 11.4743056,21.1830518 L11.4743056,21.1830518 Z M36.9925347,3.85211853 L26.7638889,3.85211853 L26.7638889,1.33924121 L36.9925347,1.33924121 L36.9925347,3.85211853 L36.9925347,3.85211853 Z M41,16.5461091 C41,11.081141 37.8395833,6.52340072 32.1095486,6.52340072 C26.5432292,6.52340072 22.7635417,10.757131 22.7635417,16.3013016 C22.7635417,22.0542786 26.3439236,26 32.1095486,26 C36.4729167,26 39.2987847,24.0127389 40.6583333,19.7862088 L36.2309028,19.7862088 C35.7539931,21.3630573 33.7894097,22.198283 32.2661458,22.198283 C29.3263889,22.198283 27.7817708,20.4558294 27.7817708,17.4965384 L40.9572917,17.4965384 C40.9786458,17.1941291 41,16.8701191 41,16.5461091 Z M27.7888889,14.29964 C27.9526042,11.8731653 29.5470486,10.3539186 31.9529514,10.3539186 C34.4727431,10.3539186 35.7397569,11.8515647 35.9532986,14.29964 L27.7888889,14.29964 Z" id="Shape"></path>
            </g>
        </g>
    </g>
</svg>