<?xml version="1.0" encoding="UTF-8"?>
<svg width="28px" height="27px" viewBox="0 0 28 27" version="1.1" xmlns="http://www.w3.org/2000/svg" xmlns:xlink="http://www.w3.org/1999/xlink">
    <title>github</title>
    <g id="Page-1" stroke="none" stroke-width="1" fill="none" fill-rule="evenodd">
        <g id="iMac-21.5&quot;" transform="translate(-1036, -3725)" fill="#D8D8D8" fill-rule="nonzero">
            <g id="github" transform="translate(1036, 3725)">
                <path d="M9.36532258,21.7403605 C9.36532258,21.8520213 9.23548387,21.94135 9.07177419,21.94135 C8.88548387,21.9580991 8.75564516,21.8687705 8.75564516,21.7403605 C8.75564516,21.6286997 8.88548387,21.5393711 9.04919355,21.5393711 C9.21854839,21.5226219 9.36532258,21.6119506 9.36532258,21.7403605 Z M7.60967742,21.4891237 C7.57016129,21.6007845 7.68306452,21.7291944 7.85241935,21.7626927 C7.99919355,21.8185231 8.16854839,21.7626927 8.20241935,21.6510319 C8.23629032,21.5393711 8.12903226,21.4109611 7.95967742,21.3607137 C7.81290323,21.3216325 7.64919355,21.3774629 7.60967742,21.4891237 Z M10.1048387,21.394212 C9.94112903,21.4332933 9.82822581,21.5393711 9.84516129,21.667781 C9.86209677,21.7794418 10.008871,21.8520213 10.1782258,21.81294 C10.3419355,21.7738588 10.4548387,21.667781 10.4379032,21.5561202 C10.4209677,21.4500424 10.2685484,21.3774629 10.1048387,21.394212 Z M13.8193548,0 C5.98951613,0 0,5.87894187 0,13.6226193 C0,19.8142115 3.94032258,25.1125171 9.56854839,26.9772527 C10.291129,27.1056626 10.5451613,26.6646024 10.5451613,26.3017048 C10.5451613,25.9555563 10.5282258,24.0461563 10.5282258,22.8737178 C10.5282258,22.8737178 6.5766129,23.7111739 5.74677419,21.2099716 C5.74677419,21.2099716 5.10322581,19.5853068 4.17741935,19.1665787 C4.17741935,19.1665787 2.88467742,18.2900414 4.26774194,18.3067905 C4.26774194,18.3067905 5.6733871,18.4184513 6.44677419,19.747215 C7.68306452,21.9022687 9.75483871,21.2825512 10.5620968,20.9140705 C10.6919355,20.020784 11.058871,19.4010665 11.4653226,19.0325858 C8.30967742,18.6864372 5.12580645,18.234211 5.12580645,12.8633258 C5.12580645,11.3279896 5.55483871,10.55753 6.45806452,9.57491481 C6.31129032,9.21201717 5.83145161,7.71576226 6.60483871,5.78403017 C7.78467742,5.42113253 10.5,7.29145116 10.5,7.29145116 C11.6290323,6.97880088 12.8427419,6.8168927 14.0451613,6.8168927 C15.2475806,6.8168927 16.4612903,6.97880088 17.5903226,7.29145116 C17.5903226,7.29145116 20.3056452,5.41554949 21.4854839,5.78403017 C22.258871,7.7213453 21.7790323,9.21201717 21.6322581,9.57491481 C22.5354839,10.563113 23.0887097,11.3335726 23.0887097,12.8633258 C23.0887097,18.2509601 19.7637097,18.6808542 16.6080645,19.0325858 C17.1274194,19.473646 17.5677419,20.3111021 17.5677419,21.6231167 C17.5677419,23.5046014 17.5508065,25.8327294 17.5508065,26.2905387 C17.5508065,26.6534363 17.8104839,27.0944966 18.5274194,26.9660866 C24.1725806,25.1125171 28,19.8142115 28,13.6226193 C28,5.87894187 21.6491935,0 13.8193548,0 Z M5.48709677,19.2559074 C5.41370968,19.3117378 5.43064516,19.4401477 5.5266129,19.5462255 C5.61693548,19.6355542 5.74677419,19.6746355 5.82016129,19.6020559 C5.89354839,19.5462255 5.8766129,19.4178156 5.78064516,19.3117378 C5.69032258,19.2224092 5.56048387,19.1833279 5.48709677,19.2559074 Z M4.87741935,18.8036811 C4.83790323,18.8762606 4.89435484,18.9655893 5.00725806,19.0214197 C5.09758065,19.0772501 5.21048387,19.060501 5.25,18.9823384 C5.28951613,18.9097589 5.23306452,18.8204302 5.12016129,18.7645998 C5.00725806,18.7311016 4.91693548,18.7478507 4.87741935,18.8036811 Z M6.70645161,20.7912436 C6.61612903,20.8638231 6.65,21.0313143 6.77983871,21.1373921 C6.90967742,21.2658021 7.0733871,21.2825512 7.14677419,21.1932225 C7.22016129,21.120643 7.18629032,20.9531518 7.0733871,20.847074 C6.94919355,20.7186641 6.77983871,20.7019149 6.70645161,20.7912436 Z M6.06290323,19.9705366 C5.97258065,20.026367 5.97258065,20.1715261 6.06290323,20.299936 C6.15322581,20.4283459 6.30564516,20.4841764 6.37903226,20.4283459 C6.46935484,20.3557664 6.46935484,20.2106074 6.37903226,20.0821974 C6.3,19.9537875 6.15322581,19.8979571 6.06290323,19.9705366 Z" id="Shape"></path>
            </g>
        </g>
    </g>
</svg>