<?xml version="1.0" encoding="UTF-8"?>
<svg width="26px" height="26px" viewBox="0 0 26 26" version="1.1" xmlns="http://www.w3.org/2000/svg" xmlns:xlink="http://www.w3.org/1999/xlink">
    <title>instagram</title>
    <g id="Page-1" stroke="none" stroke-width="1" fill="none" fill-rule="evenodd">
        <g id="iMac-21.5&quot;" transform="translate(-989, -3725)" fill="#D8D8D8" fill-rule="nonzero">
            <g id="instagram" transform="translate(989, 3725)">
                <path d="M13.0029002,6.33392837 C9.31388734,6.33392837 6.33831567,9.31016401 6.33831567,13 C6.33831567,16.689836 9.31388734,19.6660716 13.0029002,19.6660716 C16.691913,19.6660716 19.6674847,16.689836 19.6674847,13 C19.6674847,9.31016401 16.691913,6.33392837 13.0029002,6.33392837 Z M13.0029002,17.3338168 C10.6189626,17.3338168 8.6700502,15.3902711 8.6700502,13 C8.6700502,10.6097289 10.6131623,8.6661832 13.0029002,8.6661832 C15.392638,8.6661832 17.3357501,10.6097289 17.3357501,13 C17.3357501,15.3902711 15.3868377,17.3338168 13.0029002,17.3338168 L13.0029002,17.3338168 Z M21.4945901,6.06125181 C21.4945901,6.92569452 20.7985499,7.61608836 19.9401004,7.61608836 C19.0758505,7.61608836 18.3856107,6.91989289 18.3856107,6.06125181 C18.3856107,5.20261073 19.0816509,4.50641526 19.9401004,4.50641526 C20.7985499,4.50641526 21.4945901,5.20261073 21.4945901,6.06125181 Z M25.9086447,7.63929488 C25.810039,5.5565101 25.3344116,3.7115921 23.8089236,2.19156532 C22.2892359,0.671538547 20.4447295,0.195804976 18.3624094,0.0913756555 C16.2162856,-0.0304585518 9.78371445,-0.0304585518 7.63759063,0.0913756555 C5.56107083,0.190003347 3.71656442,0.665736918 2.19107641,2.1857637 C0.665588399,3.70579047 0.195761294,5.55070847 0.0913552705,7.63349325 C-0.0304517568,9.78009595 -0.0304517568,16.2141024 0.0913552705,18.3607051 C0.189960959,20.4434899 0.665588399,22.2884079 2.19107641,23.8084347 C3.71656442,25.3284615 5.5552705,25.804195 7.63759063,25.9086243 C9.78371445,26.0304586 16.2162856,26.0304586 18.3624094,25.9086243 C20.4447295,25.8099967 22.2892359,25.3342631 23.8089236,23.8084347 C25.3286113,22.2884079 25.8042387,20.4434899 25.9086447,18.3607051 C26.0304518,16.2141024 26.0304518,9.78589758 25.9086447,7.63929488 Z M23.1360848,20.6639518 C22.6836587,21.8010711 21.8078081,22.677117 20.6651422,23.1354457 C18.9540435,23.8142363 14.8938093,23.6575923 13.0029002,23.6575923 C11.1119911,23.6575923 7.0459565,23.8084347 5.34065811,23.1354457 C4.20379253,22.6829187 3.327942,21.8068727 2.86971556,20.6639518 C2.19107641,18.9524713 2.34768544,14.891331 2.34768544,13 C2.34768544,11.108669 2.19687674,7.0417271 2.86971556,5.3360482 C3.32214166,4.19892893 4.19799219,3.32288296 5.34065811,2.86455428 C7.05175683,2.1857637 11.1119911,2.34240768 13.0029002,2.34240768 C14.8938093,2.34240768 18.9598438,2.19156532 20.6651422,2.86455428 C21.8020078,3.31708133 22.6778583,4.1931273 23.1360848,5.3360482 C23.8147239,7.04752873 23.6581149,11.108669 23.6581149,13 C23.6581149,14.891331 23.8147239,18.9582729 23.1360848,20.6639518 Z" id="Shape"></path>
            </g>
        </g>
    </g>
</svg>